<svg width="35" height="35" viewBox="0 0 35 35" fill="none" xmlns="http://www.w3.org/2000/svg">
<g clip-path="url(#clip0_59_15)">
<path d="M34.6508 13.7704L22.9006 4.90962C22.5876 4.67364 22.1565 4.67364 21.8435 4.90962L19.9119 6.36627L17.9803 4.90962C17.6673 4.67364 17.2362 4.67364 16.9233 4.90962L15.0398 6.32991L13.1563 4.90962C12.8434 4.67364 12.4123 4.67364 12.0993 4.90962L0.349083 13.7704C0.129276 13.9363 0 14.1958 0 14.4712V29.3896C0 29.8744 0.39297 30.2673 0.877724 30.2673H5.7017H10.6217H24.3783H29.2023H34.1223C34.607 30.2673 35 29.8744 35 29.3896V14.4712C35 14.1958 34.8707 13.9363 34.6508 13.7704ZM33.2446 28.5119H30.08V14.4712C30.08 14.1957 29.9507 13.9363 29.7308 13.7704L21.3698 7.46556L22.3721 6.70971L33.2446 14.9087V28.5119ZM25.256 28.5119V14.4712C25.256 14.1957 25.1267 13.9363 24.9068 13.7704L16.4977 7.42932L17.4519 6.70983L28.3245 14.9088V28.512H25.256V28.5119ZM14.0654 28.5117H11.4994H11.1905V22.147H14.0654V28.5117ZM15.8209 28.5117V21.2693C15.8209 20.7845 15.4279 20.3915 14.9431 20.3915H10.3128C9.828 20.3915 9.43503 20.7845 9.43503 21.2693V28.5117H6.57942H1.75545V14.9085L12.6279 6.70958L23.5006 14.9085V28.5117H15.8209Z" fill="#19647E"/>
</g>
<defs>
<clipPath id="clip0_59_15">
<rect width="35" height="35" fill="white"/>
</clipPath>
</defs>
</svg>
