<svg width="35" height="35" viewBox="0 0 35 35" fill="none" xmlns="http://www.w3.org/2000/svg">
<g clip-path="url(#clip0_17_94)">
<path d="M25.1993 3.17896C24.3414 3.17896 23.5708 3.55794 23.0446 4.15677C22.5184 3.55794 21.7479 3.17896 20.8899 3.17896C20.4954 3.17896 20.1757 3.49874 20.1757 3.89324C20.1757 4.28774 20.4954 4.60753 20.8899 4.60753C21.6841 4.60753 22.3303 5.25373 22.3303 6.04793C22.3303 6.44236 22.6502 6.76222 23.0446 6.76222C23.4391 6.76222 23.7589 6.44236 23.7589 6.04793C23.7589 5.25373 24.4051 4.60753 25.1993 4.60753C25.5938 4.60753 25.9136 4.28768 25.9136 3.89324C25.9136 3.49881 25.5938 3.17896 25.1993 3.17896Z" fill="#19647E"/>
<path d="M19.6637 7.56012C18.8058 7.56012 18.0352 7.9391 17.509 8.53793C16.9828 7.9391 16.2122 7.56012 15.3543 7.56012C14.9598 7.56012 14.64 7.87997 14.64 8.27441C14.64 8.66884 14.9599 8.98869 15.3543 8.98869C16.1485 8.98869 16.7947 9.6349 16.7947 10.4291C16.7947 10.8235 17.1145 11.1434 17.509 11.1434C17.9034 11.1434 18.2233 10.8235 18.2233 10.4291C18.2233 9.6349 18.8695 8.98869 19.6637 8.98869C20.0582 8.98869 20.378 8.66884 20.378 8.27441C20.378 7.87997 20.0582 7.56012 19.6637 7.56012Z" fill="#19647E"/>
<path d="M13.9375 14.3815C13.0796 14.3815 12.309 14.7605 11.7828 15.3593C11.2566 14.7605 10.486 14.3815 9.6281 14.3815C9.2336 14.3815 8.91382 14.7013 8.91382 15.0958C8.91382 15.4902 9.2336 15.81 9.6281 15.81C10.4223 15.81 11.0685 16.4562 11.0685 17.2504C11.0685 17.6449 11.3883 17.9647 11.7828 17.9647C12.1772 17.9647 12.4971 17.6449 12.4971 17.2504C12.4971 16.4562 13.1433 15.81 13.9375 15.81C14.332 15.81 14.6518 15.4902 14.6518 15.0958C14.6518 14.7013 14.332 14.3815 13.9375 14.3815Z" fill="#19647E"/>
<path d="M6.99898 1.89246C4.3208 1.89246 2.14185 4.07141 2.14185 6.74959C2.14185 9.42778 4.3208 11.6067 6.99898 11.6067C9.67717 11.6067 11.8561 9.42778 11.8561 6.74959C11.8561 4.07134 9.67724 1.89246 6.99898 1.89246ZM6.99898 10.1782C5.10844 10.1782 3.57042 8.64014 3.57042 6.74959C3.57042 4.85905 5.10851 3.32103 6.99898 3.32103C8.88953 3.32103 10.4275 4.85905 10.4275 6.74959C10.4275 8.64014 8.8896 10.1782 6.99898 10.1782Z" fill="#19647E"/>
<path d="M34.9283 19.6566L28.6319 6.49444C28.488 6.19345 28.155 6.03212 27.8296 6.10609C27.5042 6.17985 27.2733 6.46901 27.2733 6.80267V19.9647C27.2732 20.3592 27.5931 20.679 27.9875 20.679H34.284C34.5294 20.679 34.7576 20.5531 34.8883 20.3455C35.0192 20.138 35.0343 19.8778 34.9283 19.6566ZM28.7018 19.2504V9.95096L33.1505 19.2504H28.7018Z" fill="#19647E"/>
<path d="M26.0287 8.78862C25.7038 8.71473 25.3703 8.87592 25.2263 9.17677L20.2084 19.6563C20.1025 19.8776 20.1176 20.1378 20.2484 20.3454C20.3791 20.5529 20.6073 20.679 20.8527 20.679H25.8706C26.265 20.679 26.5849 20.3591 26.5849 19.9647V9.48521C26.5848 9.15161 26.354 8.86252 26.0287 8.78862ZM25.1562 19.2504H21.9867L25.1562 12.6308V19.2504Z" fill="#19647E"/>
<path d="M27.1931 24.8218H23.6406C23.2461 24.8218 22.9263 25.1416 22.9263 25.5361C22.9263 25.9306 23.2461 26.2504 23.6406 26.2504H27.1931C27.5876 26.2504 27.9074 25.9306 27.9074 25.5361C27.9074 25.1416 27.5876 24.8218 27.1931 24.8218Z" fill="#19647E"/>
<path d="M21.2119 24.8218H7.73553C7.34109 24.8218 7.02124 25.1416 7.02124 25.5361C7.02124 25.9306 7.34103 26.2504 7.73553 26.2504H21.2119C21.6063 26.2504 21.9262 25.9306 21.9262 25.5361C21.9262 25.1416 21.6063 24.8218 21.2119 24.8218Z" fill="#19647E"/>
<path d="M27.193 28.2504H26.1302C25.7357 28.2504 25.4159 28.5702 25.4159 28.9647C25.4159 29.3591 25.7357 29.679 26.1302 29.679H27.193C27.5875 29.679 27.9073 29.3591 27.9073 28.9647C27.9073 28.5702 27.5875 28.2504 27.193 28.2504Z" fill="#19647E"/>
<path d="M13.504 28.2504H11.834C11.4395 28.2504 11.1198 28.5702 11.1198 28.9647C11.1198 29.3591 11.4395 29.679 11.834 29.679H13.504C13.8984 29.679 14.2183 29.3591 14.2183 28.9647C14.2183 28.5702 13.8984 28.2504 13.504 28.2504Z" fill="#19647E"/>
<path d="M9.40545 28.2504H7.80694C7.41251 28.2504 7.09265 28.5702 7.09265 28.9647C7.09265 29.3591 7.41251 29.679 7.80694 29.679H9.40545C9.79989 29.679 10.1197 29.3591 10.1197 28.9647C10.1197 28.5702 9.79989 28.2504 9.40545 28.2504Z" fill="#19647E"/>
<path d="M23.7016 28.2504H15.9325C15.5381 28.2504 15.2183 28.5702 15.2183 28.9647C15.2183 29.3591 15.5381 29.679 15.9325 29.679H23.7017C24.0962 29.679 24.416 29.3591 24.416 28.9647C24.4159 28.5702 24.0961 28.2504 23.7016 28.2504Z" fill="#19647E"/>
<path d="M30.3572 26.2504H32.5715C33.9106 26.2504 35.0001 25.1609 35.0001 23.8218C35.0001 22.4826 33.9106 21.3932 32.5715 21.3932H2.4286C1.08944 21.3932 0 22.4827 0 23.8219C0 25.161 1.08944 26.2505 2.4286 26.2505H4.1462C4.69766 26.2505 5.14623 26.699 5.14623 27.2505C5.14623 27.8019 4.69766 28.2505 4.1462 28.2505H4.07148C2.73232 28.2505 1.64288 29.34 1.64288 30.6791C1.64288 32.0183 2.73232 33.1077 4.07148 33.1077H30.9287C32.2678 33.1077 33.3573 32.0182 33.3573 30.6791C33.3573 29.34 32.2678 28.2505 30.9287 28.2505H30.3572C29.8058 28.2505 29.3572 27.8019 29.3572 27.2505C29.3571 26.699 29.8057 26.2504 30.3572 26.2504ZM30.3572 29.679H30.9286C31.48 29.679 31.9286 30.1275 31.9286 30.679C31.9286 31.2304 31.48 31.679 30.9286 31.679H4.07142C3.51996 31.679 3.07139 31.2304 3.07139 30.679C3.07139 30.1275 3.51996 29.679 4.07142 29.679H4.14613C5.48529 29.679 6.57474 28.5895 6.57474 27.2503C6.57474 25.9112 5.48529 24.8218 4.14613 24.8218H2.4286C1.87715 24.8218 1.42857 24.3732 1.42857 23.8218C1.42857 23.2703 1.87715 22.8218 2.4286 22.8218H32.5715C33.1229 22.8218 33.5715 23.2703 33.5715 23.8218C33.5715 24.3732 33.1229 24.8218 32.5715 24.8218H30.3572C29.018 24.8218 27.9286 25.9113 27.9286 27.2503C27.9286 28.5896 29.018 29.679 30.3572 29.679Z" fill="#19647E"/>
</g>
<defs>
<clipPath id="clip0_17_94">
<rect width="35" height="35" fill="white"/>
</clipPath>
</defs>
</svg>
