<svg width="35" height="35" viewBox="0 0 35 35" fill="none" xmlns="http://www.w3.org/2000/svg">
<g clip-path="url(#clip0_17_138)">
<path d="M1.18246 25.8657C3.42187 25.8657 4.60586 25.4539 5.65044 25.0906C6.64376 24.7451 7.50143 24.4467 9.34147 24.4467C11.1815 24.4467 12.0393 24.7451 13.0325 25.0906C14.0771 25.4539 15.2609 25.8657 17.5005 25.8657C19.74 25.8657 20.9239 25.4539 21.9683 25.0906C22.9615 24.7451 23.8193 24.4467 25.6591 24.4467C27.499 24.4467 28.3568 24.7451 29.3499 25.0906C30.3944 25.4539 31.5781 25.8657 33.8175 25.8657C34.4705 25.8657 35 25.3362 35 24.6832C35 24.0302 34.4705 23.5008 33.8175 23.5008C31.9777 23.5008 31.12 23.2024 30.1269 22.8569C29.0824 22.4935 27.8987 22.0818 25.6591 22.0818C25.2511 22.0818 24.879 22.0958 24.5355 22.1203V10.5089C24.5355 8.90329 25.8417 7.59709 27.4473 7.59709C29.0528 7.59709 30.359 8.90329 30.359 10.5089C30.359 11.1619 30.8885 11.6914 31.5415 11.6914C32.1945 11.6914 32.7239 11.1619 32.7239 10.5089C32.7239 7.59933 30.3569 5.23218 27.4473 5.23218C24.5377 5.23218 22.1706 7.59933 22.1706 10.5089V14.9873H12.8293V10.5089C12.8293 8.90329 14.1355 7.59709 15.7412 7.59709C17.3467 7.59709 18.6529 8.90329 18.6529 10.5089C18.6529 11.1619 19.1824 11.6914 19.8353 11.6914C20.4883 11.6914 21.0178 11.1619 21.0178 10.5089C21.0178 7.59933 18.6508 5.23218 15.7412 5.23218C12.8316 5.23218 10.4645 7.59945 10.4645 10.5089V22.1203C10.1212 22.0958 9.74921 22.0818 9.34147 22.0818C7.10194 22.0818 5.91806 22.4935 4.87349 22.8569C3.88017 23.2024 3.02249 23.5008 1.18246 23.5008C0.529478 23.5008 0 24.0302 0 24.6832C0 25.3362 0.529478 25.8657 1.18246 25.8657ZM22.1706 17.3522V18.8894H12.8293V17.3522H22.1706ZM12.8294 21.2542H22.1707V22.5366C21.8171 22.6398 21.4978 22.7503 21.1915 22.857C20.1983 23.2025 19.3405 23.5009 17.5006 23.5009C15.6607 23.5009 14.8028 23.2025 13.8096 22.857C13.5029 22.7503 13.1833 22.6398 12.8296 22.5364L12.8294 21.2542Z" fill="#19647E"/>
<path d="M33.8175 27.4029C31.9777 27.4029 31.12 27.1045 30.1269 26.759C29.0824 26.3956 27.8987 25.9839 25.6591 25.9839C23.4198 25.9839 22.2358 26.3956 21.1914 26.759C20.1982 27.1045 19.3404 27.4029 17.5005 27.4029C15.6606 27.4029 14.8026 27.1045 13.8094 26.759C12.7649 26.3956 11.581 25.9839 9.34147 25.9839C7.10194 25.9839 5.91806 26.3956 4.87349 26.759C3.88017 27.1045 3.02249 27.4029 1.18246 27.4029C0.529478 27.4029 0 27.9323 0 28.5853C0 29.2383 0.529478 29.7678 1.18246 29.7678C3.42187 29.7678 4.60586 29.356 5.65044 28.9927C6.64376 28.6472 7.50143 28.3488 9.34147 28.3488C11.1815 28.3488 12.0393 28.6472 13.0325 28.9927C14.0771 29.356 15.2609 29.7678 17.5005 29.7678C19.74 29.7678 20.9239 29.356 21.9683 28.9927C22.9615 28.6472 23.8193 28.3488 25.6591 28.3488C27.499 28.3488 28.3568 28.6472 29.3499 28.9927C30.3944 29.356 31.5781 29.7678 33.8175 29.7678C34.4705 29.7678 35 29.2383 35 28.5853C35 27.9323 34.4705 27.4029 33.8175 27.4029Z" fill="#19647E"/>
</g>
<defs>
<clipPath id="clip0_17_138">
<rect width="35" height="35" fill="white"/>
</clipPath>
</defs>
</svg>
