<svg width="35" height="35" viewBox="0 0 35 35" fill="none" xmlns="http://www.w3.org/2000/svg">
<path d="M17.7134 18.9569C18.1264 18.6411 18.7087 18.3052 19.378 18.0008C20.5829 17.4476 22.0607 16.9752 23.3742 16.6506C24.0309 16.4883 24.6485 16.3614 25.1677 16.2774C25.6842 16.1921 26.1123 16.1524 26.3397 16.1537H26.346L26.812 16.165L27.1266 15.8209C28.2216 14.6236 29.2913 13.9681 30.0731 13.6081C30.4634 13.4281 30.7817 13.3226 30.9926 13.264C31.0987 13.2349 31.1769 13.2172 31.2249 13.2078C31.2477 13.2027 31.2641 13.2001 31.2717 13.1983L32.7254 12.9943L32.027 11.6985C30.9079 9.62588 29.0097 7.43585 26.3839 5.73904C23.7594 4.04414 20.396 2.85755 16.4189 2.85878C15.9655 2.85878 15.5019 2.88025 15.0321 2.91183L14.8616 1.81555L13.596 2.01379L13.7678 3.10754C9.63272 4.13184 6.50815 6.24168 4.31812 8.69127C3.17256 9.9713 2.27842 11.3423 1.61027 12.7031C0.943359 14.064 0.502578 15.4154 0.268926 16.667L0 18.1145L1.44238 17.8656C1.44744 17.865 1.62169 17.8385 1.92992 17.8385C2.69404 17.8397 4.26897 17.9951 6.195 19.0958L6.59285 19.3225L7.02611 19.1785C7.18013 19.1274 7.42137 19.0654 7.71695 19.008C8.60993 18.8325 9.99544 18.6916 11.4807 18.6929C12.9799 18.691 14.5952 18.8368 15.9366 19.1911L17.8462 31.3923H2.66239V33.1844H34.9255V31.3923H19.6597L17.7134 18.9569ZM25.2725 7.46053C27.1303 8.65723 28.5777 10.1494 29.5653 11.5949C29.4542 11.641 29.338 11.691 29.2154 11.7471C28.4627 12.0932 27.5332 12.6439 26.5657 13.5008C26.3787 13.2065 26.1628 12.8814 25.9177 12.5308C24.9338 11.1264 23.5003 9.33481 21.7056 7.67525C20.651 6.70147 19.4714 5.77322 18.1832 4.9983C20.972 5.28117 23.3413 6.21584 25.2725 7.46053ZM6.33897 16.722C6.32755 16.7649 6.31873 16.806 6.30861 16.8477C4.81441 16.1436 3.50854 15.8903 2.58029 15.8164C2.79248 15.1041 3.08041 14.3577 3.44921 13.6049C4.33207 11.8059 5.67458 9.97199 7.53498 8.43048C8.7057 7.46053 10.0812 6.60413 11.6851 5.93796C11.2216 6.47725 10.7909 7.03992 10.3918 7.61646C8.86484 9.8298 7.80145 12.2339 7.10931 14.1928C6.76211 15.1729 6.50945 16.0412 6.33897 16.722ZM11.4805 16.6443C10.4057 16.6443 9.38909 16.71 8.51758 16.8135C8.19178 16.8528 7.88607 16.8969 7.60313 16.9461C7.69412 16.5912 7.8065 16.1833 7.94671 15.7324C8.43172 14.165 9.22236 12.0976 10.3666 10.0743C11.3316 8.36472 12.5516 6.69381 14.0331 5.36641L15.8644 17.0699C14.4348 16.7593 12.909 16.6462 11.4805 16.6443ZM17.13 16.8779L15.2683 4.98565C16.6993 5.53697 18.0507 6.35092 19.2796 7.29825C21.2865 8.8429 22.97 10.7298 24.1775 12.3173C24.7029 13.0088 25.1386 13.6435 25.4721 14.1657C25.4468 14.1688 25.4215 14.1714 25.395 14.1746C24.7799 14.2522 24.0398 14.3886 23.2315 14.5781C22.0203 14.8617 20.6651 15.262 19.4046 15.7628C18.7744 16.0135 18.1694 16.2895 17.6137 16.5939C17.447 16.686 17.2866 16.7813 17.13 16.8779Z" fill="#19647E"/>
<path d="M26.855 26.0328H23.4778V27.3128H26.855V26.0328Z" fill="#19647E"/>
<path d="M35 26.0328H31.6228V27.3128H35V26.0328Z" fill="#19647E"/>
<path d="M30.8283 21.15H27.451V22.4301H30.8283V21.15Z" fill="#19647E"/>
<path d="M9.82229 26.0397L9.797 27.3204L13.1743 27.3874L13.1995 26.1073L9.82229 26.0397Z" fill="#19647E"/>
<path d="M5.74917 21.0756L5.72388 22.3556L9.09987 22.4226L9.1264 21.1425L5.74917 21.0756Z" fill="#19647E"/>
</svg>
