<?xml version="1.0" encoding="iso-8859-1"?>
<!-- Uploaded to: SVG Repo, www.svgrepo.com, Generator: SVG Repo Mixer Tools -->
<svg fill="#000000" height="800px" width="800px" version="1.1" id="Layer_1" xmlns="http://www.w3.org/2000/svg" xmlns:xlink="http://www.w3.org/1999/xlink" 
	 viewBox="0 0 512.001 512.001" xml:space="preserve">
<g>
	<g>
		<path d="M493.991,184.199l-48.883-40.862V38.954c0-9.223-7.362-16.696-16.584-16.696h-66.783c-9.223,0-16.696,7.473-16.696,16.696
			v20.455l-56.951-47.715c-18.598-15.598-45.587-15.583-64.185-0.007L18.021,184.188c-21.189,17.688-24.12,49.196-6.337,70.506
			c15.105,18.035,40.387,22.607,60.663,12.564v14.078c-19.392,6.914-33.391,25.273-33.391,47.011c0,21.738,14,40.096,33.391,47.011
			v39.545c-19.392,6.914-33.391,25.273-33.391,47.011c0,27.619,22.468,50.087,50.087,50.087c145.756,0,188.099,0,333.914,0
			c27.619,0,50.087-22.468,50.087-50.087c0-21.737-14.111-40.096-33.503-47.011v-39.545c19.391-6.914,33.503-25.273,33.503-47.011
			c0-21.738-14.111-40.096-33.503-47.011v-14.104c7.05,3.508,14.767,5.386,22.388,5.386c14.348,0,28.571-6.114,38.397-17.94
			C518.054,233.442,515.219,201.919,493.991,184.199z M155.827,411.826h-50.198v-33.391h50.198V411.826z M322.784,478.609H189.107
			c0-41.402,0-106.098,0-116.87c0-9.223,7.584-16.696,16.807-16.696h100.174c9.223,0,16.696,7.473,16.696,16.696
			C322.784,403.806,322.784,439.124,322.784,478.609z M406.262,411.826h-50.198v-33.391h50.198V411.826z M406.262,278.26H105.628
			v-33.391c99.666,0,186.175,0,300.634,0V278.26z M222.498,211.477v-33.391c0-18.442,15.061-33.391,33.503-33.391
			c18.442,0,33.391,14.949,33.391,33.391v33.391C265.372,211.477,245.155,211.477,222.498,211.477z M478.609,233.738
			c-5.929,7.141-20.168,7.625-27.348,1.663L266.723,80.807c-6.206-5.196-15.239-5.196-21.446,0
			c-6.544,5.484-177.946,149.104-184.479,154.55c-8.033,6.657-18.25,4.168-23.494-2.081c-5.871-7.038-4.994-17.532,2.136-23.467
			L245.353,37.28c6.174-5.163,15.12-5.169,21.294,0.006l205.914,172.523c0.011,0.006,0.022,0.017,0.027,0.022
			C479.648,215.721,484.555,226.626,478.609,233.738z"/>
	</g>
</g>
</svg>