<svg width="35" height="35" viewBox="0 0 35 35" fill="none" xmlns="http://www.w3.org/2000/svg">
<g clip-path="url(#clip0_17_142)">
<path d="M34.1247 33.25H22.7498V31.5H32.3747C32.8583 31.5 33.2497 31.1086 33.2497 30.625C33.2497 30.1415 32.8583 29.75 32.3747 29.75H22.7498V28.0001H32.3747C32.8583 28.0001 33.2497 27.6086 33.2497 27.1251C33.2497 26.6415 32.8583 26.2501 32.3747 26.2501H22.7498V24.5001H32.3747C32.8583 24.5001 33.2497 24.1087 33.2497 23.6251C33.2497 23.1415 32.8583 22.7501 32.3747 22.7501H22.7498V21.0001H32.3747C32.8583 21.0001 33.2497 20.6087 33.2497 20.1251C33.2497 19.6415 32.8583 19.2501 32.3747 19.2501H2.62498C2.14141 19.2501 1.74999 19.6415 1.74999 20.1251C1.74999 20.6087 2.14141 21.0001 2.62498 21.0001H12.2499V22.7501H2.62498C2.14141 22.7501 1.74999 23.1415 1.74999 23.6251C1.74999 24.1087 2.14141 24.5001 2.62498 24.5001H12.2499V26.2501H2.62498C2.14141 26.2501 1.74999 26.6415 1.74999 27.1251C1.74999 27.6086 2.14141 28.0001 2.62498 28.0001H12.2499V29.75H2.62498C2.14141 29.75 1.74999 30.1415 1.74999 30.625C1.74999 31.1086 2.14141 31.5 2.62498 31.5H12.2499V33.25H0.874993C0.391423 33.25 0 33.6414 0 34.125C0 34.6086 0.391423 35 0.874993 35H34.1247C34.6083 35 34.9997 34.6086 34.9997 34.125C34.9997 33.6414 34.6083 33.25 34.1247 33.25ZM20.9998 33.25H13.9999V21.0001H20.9998V33.25Z" fill="#19647E"/>
<path d="M29.7498 15.7501H5.24999C4.76642 15.7501 4.375 16.1415 4.375 16.6251C4.375 17.1087 4.76642 17.5001 5.24999 17.5001H29.7498C30.2334 17.5001 30.6248 17.1087 30.6248 16.6251C30.6248 16.1415 30.2334 15.7501 29.7498 15.7501Z" fill="#19647E"/>
<path d="M26.2497 12.2502H8.74987C8.2663 12.2502 7.87488 12.6416 7.87488 13.1252C7.87488 13.6087 8.2663 14.0002 8.74987 14.0002H26.2497C26.7333 14.0002 27.1247 13.6087 27.1247 13.1252C27.1247 12.6416 26.7333 12.2502 26.2497 12.2502Z" fill="#19647E"/>
<path d="M22.7498 8.75018H12.2499C11.7663 8.75018 11.3749 9.14161 11.3749 9.62518C11.3749 10.1087 11.7663 10.5002 12.2499 10.5002H22.7498C23.2334 10.5002 23.6248 10.1087 23.6248 9.62518C23.6248 9.14161 23.2334 8.75018 22.7498 8.75018Z" fill="#19647E"/>
<path d="M19.2498 5.25024H15.7499C15.2663 5.25024 14.8749 5.64167 14.8749 6.12524C14.8749 6.60881 15.2663 7.00023 15.7499 7.00023H19.2498C19.7334 7.00023 20.1248 6.60881 20.1248 6.12524C20.1248 5.64167 19.7334 5.25024 19.2498 5.25024Z" fill="#19647E"/>
<path d="M34.7436 16.8812L18.1187 0.256336C17.7769 -0.0855267 17.2233 -0.0855267 16.8815 0.256336L0.256641 16.8812C-0.0852215 17.223 -0.0852215 17.7766 0.256641 18.1184C0.598435 18.4603 1.15207 18.4603 1.49387 18.1191L17.4998 2.11248L33.5058 18.1185C33.6767 18.2894 33.9007 18.3746 34.1247 18.3746C34.3487 18.3746 34.5727 18.2894 34.7436 18.1185C35.0854 17.7766 35.0854 17.2231 34.7436 16.8812Z" fill="#19647E"/>
</g>
<defs>
<clipPath id="clip0_17_142">
<rect width="35" height="35" fill="white"/>
</clipPath>
</defs>
</svg>
