<svg width="30" height="30" viewBox="0 0 30 30" fill="none" xmlns="http://www.w3.org/2000/svg">
<path d="M16.5891 7.15864C16.5891 7.46567 16.5891 8.46639 16.5891 9.88811H21.4772L20.9473 14.2456H16.5891C16.5891 20.9656 16.5891 29.9706 16.5891 29.9706H10.8044C10.8044 29.9706 10.8044 21.0847 10.8044 14.2456H7.79016V9.88811H10.8044C10.8044 8.16007 10.8044 6.9313 10.8044 6.58917C10.8044 4.95909 10.6816 4.18565 11.3742 2.92249C12.0672 1.65938 14.0219 -0.0101862 17.4027 0.0300091C20.7843 0.0716692 22.2097 0.396982 22.2097 0.396982L21.4772 5.04095C21.4772 5.04095 19.3179 4.47077 18.258 4.67397C17.1995 4.87723 16.5891 5.52927 16.5891 7.15864Z" fill="#19647E"/>
</svg>
