<svg width="24" height="22" viewBox="0 0 24 22" fill="none" xmlns="http://www.w3.org/2000/svg">
<g clip-path="url(#clip0_17_189)">
<mask id="mask0_17_189" style="mask-type:luminance" maskUnits="userSpaceOnUse" x="0" y="0" width="24" height="22">
<path d="M24 0H0V22H24V0Z" fill="white"/>
</mask>
<g mask="url(#mask0_17_189)">
<path fill-rule="evenodd" clip-rule="evenodd" d="M12 20.593C6.37 15.054 1 10.296 1 6.191C1 2.4 4.068 1 6.281 1C7.593 1 10.432 1.501 12 5.457C13.59 1.489 16.464 1.01 17.726 1.01C20.266 1.01 23 2.631 23 6.191C23 10.26 17.864 14.816 12 20.593ZM17.726 0.00999999C15.523 0.00999999 13.28 1.052 12 3.248C10.715 1.042 8.478 0 6.281 0C3.098 0 0 2.187 0 6.191C0 10.852 5.571 15.62 12 22C18.43 15.62 24 10.852 24 6.191C24 2.18 20.905 0.00999999 17.726 0.00999999Z" fill="white"/>
</g>
<g clip-path="url(#clip1_17_189)">
<path d="M10.969 22.2857C10.4565 21.6524 9.17664 20.4178 8.12496 19.5421C5.0089 16.9476 4.5848 16.5721 3.31961 15.2876C0.987167 12.9197 -0.00338575 10.5406 8.69258e-06 7.31475C0.00166494 5.74002 0.099014 5.13333 0.498982 4.20511C1.17756 2.63031 2.17714 1.46011 3.45509 0.74441C4.36021 0.237508 4.80662 0.012298 6.31813 0.00308444C7.89928 -0.00654977 8.23213 0.196714 9.16222 0.760082C10.2943 1.4458 11.4595 2.91129 11.7004 3.95231L11.8491 4.59528L12.216 3.70977C14.2891 -1.29426 20.9081 -1.21939 23.2115 3.83413C23.9422 5.43726 24.0224 8.86032 23.3744 10.7885C22.5292 13.3038 20.9417 15.2214 17.2718 18.1598C14.8651 20.087 12.1412 23.0028 11.9517 23.4122C11.7315 23.8877 11.9412 23.4868 10.969 22.2857Z" fill="#FF0000"/>
</g>
</g>
<defs>
<clipPath id="clip0_17_189">
<rect width="24" height="22" fill="white"/>
</clipPath>
<clipPath id="clip1_17_189">
<rect width="24" height="24" fill="white"/>
</clipPath>
</defs>
</svg>
