<svg width="24" height="22" viewBox="0 0 24 22" fill="none" xmlns="http://www.w3.org/2000/svg">
<g clip-path="url(#clip0_167_30)">
<path opacity="0.15" d="M2.52874 11.0281L11.9816 20.9972L21.4344 11.0281C22.4852 9.91982 23.0756 8.41679 23.0756 6.84954C23.0756 3.58589 20.5668 0.940186 17.4722 0.940186C15.9861 0.940186 14.5609 1.56278 13.5101 2.67099L11.9816 4.28302L10.4531 2.67099C9.4022 1.56278 7.97698 0.940186 6.49089 0.940186C3.39626 0.940186 0.887573 3.58589 0.887573 6.84954C0.887573 8.41679 1.47792 9.91982 2.52874 11.0281Z" fill="#2B4141"/>
<path d="M2.52874 11.0281L11.9816 20.9972L21.4344 11.0281C22.4852 9.91982 23.0756 8.41679 23.0756 6.84954C23.0756 3.58589 20.5668 0.940186 17.4722 0.940186C15.9861 0.940186 14.5609 1.56278 13.5101 2.67099L11.9816 4.28302L10.4531 2.67099C9.4022 1.56278 7.97698 0.940186 6.49089 0.940186C3.39626 0.940186 0.887573 3.58589 0.887573 6.84954C0.887573 8.41679 1.47792 9.91982 2.52874 11.0281Z" stroke="white" stroke-linecap="round" stroke-linejoin="round"/>
</g>
<defs>
<clipPath id="clip0_167_30">
<rect width="24" height="22" fill="white"/>
</clipPath>
</defs>
</svg>
