<svg width="24" height="22" viewBox="0 0 24 22" fill="none" xmlns="http://www.w3.org/2000/svg">
<path d="M18 0C16.3432 0 14.8433 0.743434 13.7576 1.94555L12.2655 3.58974C12.1189 3.75204 11.8819 3.75204 11.7353 3.58974C11.7353 3.58974 10.2461 1.94181 10.2431 1.94555C9.15675 0.743434 7.65675 0 6 0C2.68613 0 0 2.97332 0 6.64151C0 8.02709 0.384 9.31306 1.03988 10.3774C1.03988 10.3774 1.31513 10.8605 1.64062 11.2204C1.96612 11.5803 10.9395 21.5135 10.9395 21.5135C11.2324 21.8377 11.6164 22 12 22C12.3836 22 12.7676 21.8377 13.0605 21.5135C13.0605 21.5135 22.0343 11.5803 22.3594 11.2204C22.6845 10.8605 22.9601 10.3774 22.9601 10.3774C23.616 9.31306 24 8.02709 24 6.64151C24 2.97332 21.3139 0 18 0ZM21.375 7.0566C21.1676 7.0566 21 6.87106 21 6.64151C21 4.80762 19.6568 3.32075 18 3.32075C17.7926 3.32075 17.625 3.13521 17.625 2.90566C17.625 2.67611 17.7926 2.49057 18 2.49057C20.0707 2.49057 21.75 4.34936 21.75 6.64151C21.75 6.87106 21.5824 7.0566 21.375 7.0566Z" fill="#FF0000"/>
</svg>
