<svg width="40" height="40" viewBox="0 0 40 40" fill="none" xmlns="http://www.w3.org/2000/svg">
<path d="M20.885 2.86501C20.7689 2.7486 20.6309 2.65624 20.4791 2.59323C20.3272 2.53021 20.1644 2.49777 20 2.49777C19.8356 2.49777 19.6728 2.53021 19.5209 2.59323C19.3691 2.65624 19.2311 2.7486 19.115 2.86501L4.115 17.865C3.999 17.9813 3.90705 18.1193 3.84442 18.2712C3.78179 18.423 3.74971 18.5857 3.75 18.75V36.25C3.75 36.5815 3.8817 36.8995 4.11612 37.1339C4.35054 37.3683 4.66848 37.5 5 37.5H16.25C16.5815 37.5 16.8995 37.3683 17.1339 37.1339C17.3683 36.8995 17.5 36.5815 17.5 36.25V26.25H22.5V36.25C22.5 36.5815 22.6317 36.8995 22.8661 37.1339C23.1005 37.3683 23.4185 37.5 23.75 37.5H35C35.3315 37.5 35.6495 37.3683 35.8839 37.1339C36.1183 36.8995 36.25 36.5815 36.25 36.25V18.75C36.2503 18.5857 36.2182 18.423 36.1556 18.2712C36.093 18.1193 36.001 17.9813 35.885 17.865L32.5 14.4825V6.25001C32.5 5.91849 32.3683 5.60054 32.1339 5.36612C31.8995 5.1317 31.5815 5.00001 31.25 5.00001H28.75C28.4185 5.00001 28.1005 5.1317 27.8661 5.36612C27.6317 5.60054 27.5 5.91849 27.5 6.25001V9.48251L20.885 2.86501ZM6.25 35V19.2675L20 5.51751L33.75 19.2675V35H25V25C25 24.6685 24.8683 24.3505 24.6339 24.1161C24.3995 23.8817 24.0815 23.75 23.75 23.75H16.25C15.9185 23.75 15.6005 23.8817 15.3661 24.1161C15.1317 24.3505 15 24.6685 15 25V35H6.25Z" fill="black"/>
</svg>
