<svg width="195" height="41" viewBox="0 0 195 41" fill="none" xmlns="http://www.w3.org/2000/svg">
<g clip-path="url(#clip0_17_222)">
<path d="M20.885 4.86498C20.7689 4.74857 20.6309 4.65621 20.4791 4.59319C20.3272 4.53018 20.1644 4.49774 20 4.49774C19.8356 4.49774 19.6728 4.53018 19.5209 4.59319C19.3691 4.65621 19.2311 4.74857 19.115 4.86498L4.115 19.865C3.999 19.9813 3.90705 20.1193 3.84442 20.2711C3.78179 20.423 3.74971 20.5857 3.75 20.75V38.25C3.75 38.5815 3.8817 38.8994 4.11612 39.1339C4.35054 39.3683 4.66848 39.5 5 39.5H16.25C16.5815 39.5 16.8995 39.3683 17.1339 39.1339C17.3683 38.8994 17.5 38.5815 17.5 38.25V28.25H22.5V38.25C22.5 38.5815 22.6317 38.8994 22.8661 39.1339C23.1005 39.3683 23.4185 39.5 23.75 39.5H35C35.3315 39.5 35.6495 39.3683 35.8839 39.1339C36.1183 38.8994 36.25 38.5815 36.25 38.25V20.75C36.2503 20.5857 36.2182 20.423 36.1556 20.2711C36.093 20.1193 36.001 19.9813 35.885 19.865L32.5 16.4825V8.24998C32.5 7.91846 32.3683 7.60051 32.1339 7.36609C31.8995 7.13167 31.5815 6.99998 31.25 6.99998H28.75C28.4185 6.99998 28.1005 7.13167 27.8661 7.36609C27.6317 7.60051 27.5 7.91846 27.5 8.24998V11.4825L20.885 4.86498ZM6.25 37V21.2675L20 7.51748L33.75 21.2675V37H25V27C25 26.6685 24.8683 26.3505 24.6339 26.1161C24.3995 25.8817 24.0815 25.75 23.75 25.75H16.25C15.9185 25.75 15.6005 25.8817 15.3661 26.1161C15.1317 26.3505 15 26.6685 15 27V37H6.25Z" fill="#F0F5F8"/>
<path d="M50.4961 33.873C50.4961 33.4629 50.4323 33.0983 50.3047 32.7793C50.1862 32.4603 49.972 32.1686 49.6621 31.9043C49.3522 31.64 48.9147 31.3848 48.3496 31.1387C47.7936 30.8835 47.0827 30.6237 46.2168 30.3594C45.2689 30.0677 44.3939 29.7441 43.5918 29.3887C42.7988 29.0241 42.1061 28.6048 41.5137 28.1309C40.9212 27.6478 40.4609 27.0964 40.1328 26.4766C39.8047 25.8477 39.6406 25.123 39.6406 24.3027C39.6406 23.4915 39.8092 22.7533 40.1465 22.0879C40.4928 21.4225 40.9805 20.8483 41.6094 20.3652C42.2474 19.873 42.9993 19.4948 43.8652 19.2305C44.7311 18.957 45.6882 18.8203 46.7363 18.8203C48.2129 18.8203 49.4844 19.0938 50.5508 19.6406C51.6263 20.1875 52.4512 20.9212 53.0254 21.8418C53.6087 22.7624 53.9004 23.7786 53.9004 24.8906H50.4961C50.4961 24.2344 50.3548 23.6556 50.0723 23.1543C49.7988 22.6439 49.3796 22.2428 48.8145 21.9512C48.2585 21.6595 47.5521 21.5137 46.6953 21.5137C45.8841 21.5137 45.2096 21.6367 44.6719 21.8828C44.1341 22.1289 43.7331 22.4616 43.4688 22.8809C43.2044 23.3001 43.0723 23.7741 43.0723 24.3027C43.0723 24.6764 43.1589 25.0182 43.332 25.3281C43.5052 25.6289 43.7695 25.9115 44.125 26.1758C44.4805 26.431 44.9271 26.6725 45.4648 26.9004C46.0026 27.1283 46.6361 27.347 47.3652 27.5566C48.4681 27.8848 49.4297 28.2493 50.25 28.6504C51.0703 29.0423 51.7539 29.4889 52.3008 29.9902C52.8477 30.4915 53.2578 31.0612 53.5312 31.6992C53.8047 32.3281 53.9414 33.0436 53.9414 33.8457C53.9414 34.6842 53.7728 35.4408 53.4355 36.1152C53.0983 36.7806 52.6152 37.3503 51.9863 37.8242C51.3665 38.2891 50.6191 38.6491 49.7441 38.9043C48.8783 39.1504 47.9121 39.2734 46.8457 39.2734C45.8887 39.2734 44.9453 39.1458 44.0156 38.8906C43.0951 38.6354 42.2565 38.248 41.5 37.7285C40.7435 37.1999 40.1419 36.5436 39.6953 35.7598C39.2487 34.9668 39.0254 34.0417 39.0254 32.9844H42.457C42.457 33.6315 42.5664 34.1829 42.7852 34.6387C43.013 35.0944 43.3275 35.4681 43.7285 35.7598C44.1296 36.0423 44.5944 36.252 45.123 36.3887C45.6608 36.5254 46.235 36.5938 46.8457 36.5938C47.6478 36.5938 48.3177 36.4798 48.8555 36.252C49.4023 36.0241 49.8125 35.7051 50.0859 35.2949C50.3594 34.8848 50.4961 34.4108 50.4961 33.873ZM56.9766 19.0938H64.0176C65.5306 19.0938 66.8203 19.3216 67.8867 19.7773C68.9531 20.2331 69.7689 20.9076 70.334 21.8008C70.9082 22.6849 71.1953 23.7786 71.1953 25.082C71.1953 26.0755 71.013 26.9505 70.6484 27.707C70.2839 28.4635 69.7689 29.1016 69.1035 29.6211C68.4382 30.1315 67.6452 30.528 66.7246 30.8105L65.6855 31.3164H59.3555L59.3281 28.5957H64.0723C64.8926 28.5957 65.5762 28.4499 66.123 28.1582C66.6699 27.8665 67.0801 27.4701 67.3535 26.9688C67.6361 26.4583 67.7773 25.8841 67.7773 25.2461C67.7773 24.5534 67.6406 23.9518 67.3672 23.4414C67.1029 22.9219 66.6927 22.5254 66.1367 22.252C65.5807 21.9694 64.8743 21.8281 64.0176 21.8281H60.4082V39H56.9766V19.0938ZM68.3379 39L63.6621 30.0586L67.2578 30.0449L72.002 38.8223V39H68.3379ZM87.6426 36.2793V39H77.0742V36.2793H87.6426ZM78.0449 19.0938V39H74.6133V19.0938H78.0449ZM86.2617 27.4062V30.0859H77.0742V27.4062H86.2617ZM87.5742 19.0938V21.8281H77.0742V19.0938H87.5742ZM94.1094 19.0938V39H90.6777V19.0938H94.1094ZM111.404 36.2793V39H100.836V36.2793H111.404ZM101.807 19.0938V39H98.375V19.0938H101.807ZM110.023 27.4062V30.0859H100.836V27.4062H110.023ZM111.336 19.0938V21.8281H100.836V19.0938H111.336ZM129.998 19.0938V39H126.566L117.639 24.7402V39H114.207V19.0938H117.639L126.594 33.3809V19.0938H129.998ZM139.869 39H135.617L135.645 36.2793H139.869C141.1 36.2793 142.13 36.0104 142.959 35.4727C143.798 34.9349 144.426 34.1647 144.846 33.1621C145.274 32.1595 145.488 30.9655 145.488 29.5801V28.5C145.488 27.4245 145.365 26.472 145.119 25.6426C144.882 24.8132 144.527 24.1159 144.053 23.5508C143.588 22.9857 143.014 22.5573 142.33 22.2656C141.656 21.974 140.876 21.8281 139.992 21.8281H135.535V19.0938H139.992C141.314 19.0938 142.521 19.3171 143.615 19.7637C144.709 20.2012 145.652 20.8346 146.445 21.6641C147.247 22.4935 147.863 23.487 148.291 24.6445C148.719 25.8021 148.934 27.0964 148.934 28.5273V29.5801C148.934 31.0111 148.719 32.3053 148.291 33.4629C147.863 34.6204 147.247 35.6139 146.445 36.4434C145.643 37.2637 144.686 37.8971 143.574 38.3438C142.471 38.7812 141.236 39 139.869 39ZM137.518 19.0938V39H134.086V19.0938H137.518ZM168.252 28.5V29.5938C168.252 31.0977 168.056 32.4466 167.664 33.6406C167.272 34.8346 166.712 35.8509 165.982 36.6895C165.262 37.528 164.396 38.1706 163.385 38.6172C162.373 39.0547 161.252 39.2734 160.021 39.2734C158.8 39.2734 157.684 39.0547 156.672 38.6172C155.669 38.1706 154.799 37.528 154.061 36.6895C153.322 35.8509 152.748 34.8346 152.338 33.6406C151.937 32.4466 151.736 31.0977 151.736 29.5938V28.5C151.736 26.9961 151.937 25.6517 152.338 24.4668C152.739 23.2728 153.304 22.2565 154.033 21.418C154.771 20.5703 155.642 19.9277 156.645 19.4902C157.656 19.0436 158.773 18.8203 159.994 18.8203C161.225 18.8203 162.346 19.0436 163.357 19.4902C164.369 19.9277 165.24 20.5703 165.969 21.418C166.698 22.2565 167.258 23.2728 167.65 24.4668C168.051 25.6517 168.252 26.9961 168.252 28.5ZM164.82 29.5938V28.4727C164.82 27.3607 164.711 26.3809 164.492 25.5332C164.283 24.6764 163.968 23.9609 163.549 23.3867C163.139 22.8034 162.633 22.3659 162.031 22.0742C161.43 21.7734 160.751 21.623 159.994 21.623C159.238 21.623 158.563 21.7734 157.971 22.0742C157.378 22.3659 156.872 22.8034 156.453 23.3867C156.043 23.9609 155.729 24.6764 155.51 25.5332C155.291 26.3809 155.182 27.3607 155.182 28.4727V29.5938C155.182 30.7057 155.291 31.6901 155.51 32.5469C155.729 33.4036 156.048 34.1283 156.467 34.7207C156.895 35.304 157.406 35.7461 157.998 36.0469C158.59 36.3385 159.265 36.4844 160.021 36.4844C160.787 36.4844 161.466 36.3385 162.059 36.0469C162.651 35.7461 163.152 35.304 163.562 34.7207C163.973 34.1283 164.283 33.4036 164.492 32.5469C164.711 31.6901 164.82 30.7057 164.82 29.5938ZM173.078 19.0938H176.141L181.896 34.4473L187.639 19.0938H190.701L183.1 39H180.666L173.078 19.0938ZM171.684 19.0938H174.596L175.102 32.3828V39H171.684V19.0938ZM189.184 19.0938H192.109V39H188.678V32.3828L189.184 19.0938Z" fill="#F0F5F8"/>
</g>
<defs>
<clipPath id="clip0_17_222">
<rect width="195" height="41" fill="white"/>
</clipPath>
</defs>
</svg>
