<svg width="35" height="35" viewBox="0 0 35 35" fill="none" xmlns="http://www.w3.org/2000/svg">
<path d="M29.8744 13.9259C27.2153 11.2668 23.8511 9.56981 20.2035 9.00749C20.5768 8.47319 20.7966 7.82418 20.7966 7.12439C20.7966 5.30658 19.3177 3.82776 17.5 3.82776C15.6824 3.82776 14.2034 5.30658 14.2034 7.12439C14.2034 7.82418 14.4233 8.47319 14.7965 9.00749C11.149 9.56988 7.78463 11.2668 5.12559 13.9259C1.82027 17.2312 0 21.6259 0 26.3003V31.1721H35V26.3003C35 21.6259 33.1797 17.2312 29.8744 13.9259ZM17.5 6.11048C18.0591 6.11048 18.5139 6.56542 18.5139 7.12453C18.5139 7.68364 18.059 8.13843 17.5 8.13843C16.941 8.13843 16.4861 7.68357 16.4861 7.12453C16.4861 6.56548 16.9409 6.11048 17.5 6.11048ZM17.5 11.0829C25.2171 11.0829 31.6104 16.8573 32.5875 24.3122H2.41247C3.3896 16.8573 9.78291 11.0829 17.5 11.0829ZM32.7174 28.8895H2.28259V26.5948H32.7173V28.8895H32.7174Z" fill="#19647E"/>
</svg>
