<svg width="35" height="35" viewBox="0 0 35 35" fill="none" xmlns="http://www.w3.org/2000/svg">
<g clip-path="url(#clip0_17_168)">
<path d="M14.2087 18.5936H13.135V20.2443H11.4744V15.8494H13.135V16.4059H14.2087V14.7756H10.4006V21.318H14.2087V18.5936Z" fill="#19647E"/>
<path d="M15.8594 16.9631H12.0312V18.0369H15.8594V16.9631Z" fill="#19647E"/>
<path d="M7.09943 3.83813H1.6507V12.5681H7.09943V3.83813ZM6.0257 11.4944H2.72435V4.91186H6.02564L6.0257 11.4944Z" fill="#19647E"/>
<path d="M5.46869 9.85376H3.28119V10.9275H5.46869V9.85376Z" fill="#19647E"/>
<path d="M4.91192 6.01556H3.8382V8.74994H4.91192V6.01556Z" fill="#19647E"/>
<path d="M3.28125 13.135H2.1875V14.2087H3.28125V13.135Z" fill="#19647E"/>
<path d="M4.92188 13.135H3.82812V14.2087H4.92188V13.135Z" fill="#19647E"/>
<path d="M6.5625 13.135H5.46875V14.2087H6.5625V13.135Z" fill="#19647E"/>
<path d="M35 32.2607V31.187H26.7868V0.0100708H8.21312V31.1871H0V32.2608H8.21312V33.9163H0V34.99H35V33.9163H26.7868V32.2607H35ZM25.7131 33.9162H9.28684V1.08373H25.7132L25.7131 33.9162Z" fill="#19647E"/>
</g>
<defs>
<clipPath id="clip0_17_168">
<rect width="35" height="35" fill="white"/>
</clipPath>
</defs>
</svg>
