<svg width="35" height="35" viewBox="0 0 35 35" fill="none" xmlns="http://www.w3.org/2000/svg">
<g clip-path="url(#clip0_17_161)">
<path d="M27.9216 10.0552C25.8473 8.14141 23.319 6.85507 20.6009 6.29749V5.51634C20.8671 5.19151 21.4465 4.62036 22.3731 4.38945C22.609 4.33067 22.7526 4.09169 22.6938 3.85579C22.635 3.61989 22.3958 3.47615 22.1601 3.53507C21.5067 3.69796 20.9894 3.9952 20.6009 4.29773V0.440251C20.6009 0.197159 20.4037 0 20.1606 0C19.9175 0 19.7204 0.197159 19.7204 0.440251V6.14311C18.9899 6.03708 18.2482 5.98257 17.4999 5.98257C16.7515 5.98257 16.0097 6.03716 15.2791 6.14318V4.97703C15.2791 4.88253 15.2487 4.79059 15.1924 4.71472C14.741 4.10629 13.493 2.60423 11.6574 1.79813C11.435 1.70047 11.1752 1.80158 11.0773 2.0242C10.9795 2.24682 11.0808 2.50657 11.3034 2.6043C12.8417 3.27987 13.9302 4.51697 14.3986 5.12474V6.29749C11.6806 6.85507 9.15243 8.14141 7.07826 10.0551C6.94501 10.178 6.90077 10.37 6.96673 10.5389C7.03269 10.7079 7.19544 10.8189 7.37675 10.8189H8.37326V19.6129C8.37326 19.856 8.57042 20.0531 8.81351 20.0531H11.9579L14.3989 23.7676V26.6589C14.3989 29.3251 13.8835 31.9268 12.867 34.3919C12.7743 34.6166 12.8814 34.874 13.1062 34.9667C13.1611 34.9894 13.2179 35.0001 13.2739 35.0001C13.4469 35.0001 13.611 34.8974 13.6811 34.7276C14.7416 32.1556 15.2794 29.441 15.2794 26.6589V20.0532H17.0598V23.5534C17.0598 23.7965 17.257 23.9937 17.5001 23.9937C17.7432 23.9937 17.9403 23.7965 17.9403 23.5534V20.0531H19.7203V26.6589C19.7203 29.441 20.258 32.1556 21.3187 34.7275C21.3888 34.8974 21.5528 35 21.7258 35C21.7818 35 21.8386 34.9893 21.8935 34.9666C22.1182 34.8739 22.2254 34.6165 22.1327 34.3918C21.1162 31.9269 20.6008 29.3252 20.6008 26.6589V23.7677L22.6388 20.6663V34.5597C22.6388 34.8028 22.8359 34.9999 23.079 34.9999C23.3221 34.9999 23.5193 34.8028 23.5193 34.5597V33.7382H25.746V34.5597C25.746 34.8028 25.9431 34.9999 26.1862 34.9999C26.4293 34.9999 26.6265 34.8028 26.6265 34.5597V10.8189H27.6229C27.8042 10.8189 27.9669 10.7078 28.0329 10.5389C28.099 10.3701 28.0549 10.1781 27.9216 10.0552ZM24.3756 9.93844C23.6878 9.00658 22.9269 8.22777 22.1133 7.61472C23.664 8.13495 25.1225 8.91706 26.4265 9.93844H24.3756ZM17.0598 9.93844H11.7404C13.2704 8.08792 15.124 7.0206 17.0598 6.87965V9.93844ZM17.9403 6.87965C19.8761 7.0206 21.7296 8.08799 23.2596 9.93844H17.9403V6.87965ZM12.8867 7.6148C12.0731 8.22785 11.3122 9.00658 10.6245 9.93844H8.57342C9.87745 8.91713 11.3359 8.13503 12.8867 7.6148ZM14.3991 22.1642L13.0118 20.0531H14.3991V22.1642ZM20.6009 20.0531H21.9883L20.6009 22.1643V20.0531ZM25.7461 20.7343H23.5194V20.0531H25.7461V20.7343ZM23.5194 29.6971H25.7461V30.8372H23.5194V29.6971ZM23.5194 28.8166V27.6765H25.7461V28.8166H23.5194ZM23.5194 26.796V25.6559H25.7461V26.796H23.5194ZM23.5194 24.7755V23.6354H25.7461V24.7755H23.5194ZM23.5194 22.7549V21.6148H25.7461V22.7549H23.5194ZM23.5194 32.8577V31.7176H25.7461V32.8577H23.5194ZM25.7461 19.1726H9.2539V10.8189H25.7461V19.1726Z" fill="#19647E"/>
<path d="M19.2999 11.2688H15.7001C15.457 11.2688 15.2599 11.466 15.2599 11.709V15.7001C15.2599 15.9432 15.457 16.1403 15.7001 16.1403H19.2999C19.543 16.1403 19.7402 15.9432 19.7402 15.7001V11.709C19.7402 11.466 19.543 11.2688 19.2999 11.2688ZM18.8597 15.2598H16.1404V12.1493H18.8597V15.2598Z" fill="#19647E"/>
<path d="M22.4985 11.709V15.7001C22.4985 15.9432 22.6956 16.1403 22.9387 16.1403H24.8169C25.06 16.1403 25.2572 15.9432 25.2572 15.7001V11.709C25.2572 11.466 25.06 11.2688 24.8169 11.2688H22.9387C22.6956 11.2688 22.4985 11.466 22.4985 11.709ZM23.379 12.1493H24.3767V15.2598H23.379V12.1493Z" fill="#19647E"/>
<path d="M12.0612 11.2688H10.183C9.93996 11.2688 9.7428 11.466 9.7428 11.709V15.7001C9.7428 15.9432 9.93996 16.1403 10.183 16.1403H12.0612C12.3043 16.1403 12.5015 15.9432 12.5015 15.7001V11.709C12.5015 11.466 12.3044 11.2688 12.0612 11.2688ZM11.621 15.2598H10.6233V12.1493H11.621V15.2598Z" fill="#19647E"/>
<path d="M12.8523 1.06687C14.2679 1.65571 15.413 2.79398 15.4244 2.80542C15.5104 2.89179 15.6233 2.935 15.7363 2.935C15.8486 2.935 15.9609 2.8923 16.0467 2.80689C16.2191 2.63541 16.2199 2.35666 16.0484 2.1843C16.0242 2.15994 15.7392 1.87583 15.2792 1.51344V0.440251C15.2792 0.197159 15.082 0 14.8389 0C14.5959 0 14.3987 0.197159 14.3987 0.440251V0.889306C14.0343 0.658908 13.6261 0.435041 13.1905 0.253878C12.966 0.160765 12.7084 0.266792 12.6149 0.491246C12.5216 0.715774 12.6279 0.973468 12.8523 1.06687Z" fill="#19647E"/>
</g>
<defs>
<clipPath id="clip0_17_161">
<rect width="35" height="35" fill="white"/>
</clipPath>
</defs>
</svg>
