<svg width="30" height="30" viewBox="0 0 30 30" fill="none" xmlns="http://www.w3.org/2000/svg">
<g clip-path="url(#clip0_17_218)">
<path d="M28.8019 23.0428C28.2535 24.2756 26.8388 25.3922 25.5104 25.6388C25.3744 25.6641 22.1279 26.25 15.0094 26.25H14.9907C7.87316 26.25 4.62379 25.6641 4.48879 25.6397C3.16035 25.3922 1.74473 24.2756 1.19535 23.0419C1.1466 22.9322 0.000976562 20.2941 0.000976562 15C0.000976562 9.70594 1.1466 7.06687 1.19535 6.95719C1.74473 5.72344 3.16035 4.60781 4.48879 4.36125C4.62379 4.33594 7.87316 3.75 14.9907 3.75C22.1279 3.75 25.3744 4.33594 25.5094 4.36031C26.8388 4.60781 28.2535 5.72344 28.8029 6.95625C28.8516 7.06687 30 9.70594 30 15C30 20.2941 28.8516 22.9322 28.8019 23.0428ZM27.0872 7.71563C26.7947 7.05844 25.8779 6.33656 25.1672 6.20438C25.1372 6.19875 21.9244 5.625 15.0094 5.625C8.0766 5.625 4.86098 6.19875 4.83004 6.20438C4.11941 6.33656 3.20348 7.05844 2.91004 7.71938C2.90066 7.73906 1.87691 10.1522 1.87691 15C1.87691 19.8469 2.90066 22.26 2.91191 22.2844C3.20348 22.9416 4.11941 23.6634 4.83098 23.7956C4.86098 23.8013 8.0766 24.375 14.9907 24.375H15.0094C21.9244 24.375 25.1372 23.8013 25.1682 23.7956C25.8788 23.6634 26.7947 22.9416 27.0882 22.2806C27.0975 22.26 28.1232 19.8469 28.1232 15C28.1232 10.1531 27.0975 7.73906 27.0872 7.71563ZM12.6947 20.4806C12.5429 20.5772 12.3685 20.625 12.195 20.625C12.0394 20.625 11.8838 20.5866 11.7422 20.5078C11.4432 20.3428 11.2575 20.0287 11.2575 19.6875V10.3125C11.2575 9.97219 11.4413 9.65906 11.7385 9.49406C12.0357 9.32812 12.4004 9.33563 12.6882 9.51469L20.206 14.1609C20.4807 14.3306 20.6494 14.6306 20.6504 14.9541C20.6513 15.2775 20.4863 15.5794 20.2125 15.7509L12.6947 20.4806ZM13.1335 11.9944V17.9897L17.941 14.9653L13.1335 11.9944Z" fill="#19647E"/>
</g>
<defs>
<clipPath id="clip0_17_218">
<rect width="30" height="30" fill="white"/>
</clipPath>
</defs>
</svg>
